<svg xmlns="http://www.w3.org/2000/svg" viewBox="0 0 19.5 22.06"><defs><style>.cls-1{fill:none;stroke:#000;stroke-miterlimit:10;stroke-width:2px;}</style></defs><g id="Layer_2" data-name="Layer 2"><g id="Layer_1-2" data-name="Layer 1"><path class="cls-1" d="M1,10.76a8.07,8.07,0,0,1,.34-3.29,8,8,0,0,1,2.28-2.4L4.87,4C7.2,2,8.36,1,9.75,1s2.55,1,4.88,3l1.25,1.08a8,8,0,0,1,2.28,2.4,8.07,8.07,0,0,1,.34,3.29v5.3c0,2.36,0,3.54-.73,4.27s-1.91.73-4.27.73H6c-2.36,0-3.54,0-4.27-.73S1,18.42,1,16.06Z"/><path class="cls-1" d="M12.88,21.06v-6.5a1,1,0,0,0-1-1H7.62a1,1,0,0,0-1,1v6.5"/></g></g></svg>