<?xml version="1.0" encoding="UTF-8"?>
<svg xmlns="http://www.w3.org/2000/svg" xmlns:xlink="http://www.w3.org/1999/xlink" width="32px" height="45px" viewBox="0 0 32 45" version="1.1">
<defs>
<filter id="alpha" filterUnits="objectBoundingBox" x="0%" y="0%" width="100%" height="100%">
  <feColorMatrix type="matrix" in="SourceGraphic" values="0 0 0 0 1 0 0 0 0 1 0 0 0 0 1 0 0 0 1 0"/>
</filter>
<mask id="mask0">
  <g filter="url(#alpha)">
<rect x="0" y="0" width="32" height="45" style="fill:rgb(0%,0%,0%);fill-opacity:0.301961;stroke:none;"/>
  </g>
</mask>
<clipPath id="clip1">
  <rect x="0" y="0" width="32" height="45"/>
</clipPath>
<g id="surface5" clip-path="url(#clip1)">
<path style="fill-rule:nonzero;fill:rgb(57.254902%,15.294118%,56.078431%);fill-opacity:1;stroke-width:1;stroke-linecap:butt;stroke-linejoin:miter;stroke:rgb(57.254902%,15.294118%,56.078431%);stroke-opacity:1;stroke-miterlimit:10;" d="M 137.416052 664.682724 L 17.513098 319.230162 C 11.481616 301.899032 20.71051 283.032233 38.005603 277.035808 L 389.720935 154.913501 C 407.016028 148.917076 425.909827 158.131095 431.86864 175.389097 L 551.771594 520.914787 C 557.803076 538.172789 548.574182 557.112716 531.279089 563.109141 L 179.709094 685.231448 C 162.268665 691.227873 143.374866 682.013854 137.416052 664.682724 Z M 137.416052 664.682724 " transform="matrix(0.0537544,0,0,0.0534172,0,0.0140097)"/>
</g>
<mask id="mask1">
  <g filter="url(#alpha)">
<rect x="0" y="0" width="32" height="45" style="fill:rgb(0%,0%,0%);fill-opacity:0.4;stroke:none;"/>
  </g>
</mask>
<clipPath id="clip2">
  <rect x="0" y="0" width="32" height="45"/>
</clipPath>
<g id="surface8" clip-path="url(#clip2)">
<path style="fill-rule:nonzero;fill:rgb(57.254902%,15.294118%,56.078431%);fill-opacity:1;stroke-width:1;stroke-linecap:butt;stroke-linejoin:miter;stroke:rgb(57.254902%,15.294118%,56.078431%);stroke-opacity:1;stroke-miterlimit:10;" d="M 287.331079 698.101823 L 15.115039 453.930336 C 1.380701 441.571851 0.290674 420.584364 12.498975 406.982718 L 261.097766 129.904023 C 273.306067 116.302376 294.307251 115.132342 307.968921 127.4177 L 580.184961 371.589187 C 593.773962 383.801418 595.009326 404.788904 582.728357 418.463678 L 334.129565 695.469246 C 321.921265 709.217147 300.920081 710.314053 287.331079 698.101823 Z M 287.331079 698.101823 " transform="matrix(0.0537544,0,0,0.0534172,0,0.0140097)"/>
</g>
<mask id="mask2">
  <g filter="url(#alpha)">
<rect x="0" y="0" width="32" height="45" style="fill:rgb(0%,0%,0%);fill-opacity:0.501961;stroke:none;"/>
  </g>
</mask>
<clipPath id="clip3">
  <rect x="0" y="0" width="32" height="45"/>
</clipPath>
<g id="surface11" clip-path="url(#clip3)">
<path style="fill-rule:nonzero;fill:rgb(57.254902%,15.294118%,56.078431%);fill-opacity:1;stroke-width:1;stroke-linecap:butt;stroke-linejoin:miter;stroke:rgb(57.254902%,15.294118%,56.078431%);stroke-opacity:1;stroke-miterlimit:10;" d="M 467.476184 639.380737 L 101.808508 639.380737 C 83.496057 639.380737 68.599023 624.53593 68.599023 606.18102 L 68.599023 233.890801 C 68.599023 215.609019 83.496057 200.691084 101.808508 200.691084 L 467.476184 200.691084 C 485.788635 200.691084 500.685669 215.609019 500.685669 233.890801 L 500.685669 606.18102 C 500.685669 624.53593 485.788635 639.380737 467.476184 639.380737 Z M 467.476184 639.380737 " transform="matrix(0.0537544,0,0,0.0534172,0,0.0140097)"/>
</g>
<mask id="mask3">
  <g filter="url(#alpha)">
<rect x="0" y="0" width="32" height="45" style="fill:rgb(0%,0%,0%);fill-opacity:0.2;stroke:none;"/>
  </g>
</mask>
<clipPath id="clip4">
  <rect x="0" y="0" width="32" height="45"/>
</clipPath>
<g id="surface14" clip-path="url(#clip4)">
<path style="fill-rule:nonzero;fill:rgb(57.254902%,15.294118%,56.078431%);fill-opacity:1;stroke-width:1;stroke-linecap:butt;stroke-linejoin:miter;stroke:rgb(57.254902%,15.294118%,56.078431%);stroke-opacity:1;stroke-miterlimit:10;" d="M 383.907458 687.790897 L 39.09563 565.887972 C 21.800537 559.81842 12.789648 540.805366 18.893799 523.474236 L 143.011523 172.610266 C 149.115674 155.279137 168.082141 146.2845 185.377234 152.427179 L 530.189062 274.330104 C 547.484155 280.399656 556.495044 299.41271 550.390894 316.670713 L 426.273169 667.60781 C 420.169019 684.865812 401.202551 693.933576 383.907458 687.790897 Z M 383.907458 687.790897 " transform="matrix(0.0537544,0,0,0.0534172,0,0.0140097)"/>
</g>
</defs>
<g id="surface1">
<use xlink:href="#surface5" mask="url(#mask0)"/>
<use xlink:href="#surface8" mask="url(#mask1)"/>
<use xlink:href="#surface11" mask="url(#mask2)"/>
<use xlink:href="#surface14" mask="url(#mask3)"/>
<path style="fill:none;stroke-width:10;stroke-linecap:butt;stroke-linejoin:miter;stroke:rgb(100%,100%,100%);stroke-opacity:1;stroke-miterlimit:10;" d="M 96.431042 343.800878 L 96.431042 604.718478 " transform="matrix(0.0537544,0,0,0.0534172,0,0.0140097)"/>
<path style="fill:none;stroke-width:10;stroke-linecap:butt;stroke-linejoin:miter;stroke:rgb(100%,100%,100%);stroke-opacity:1;stroke-miterlimit:10;" d="M 120.992981 343.800878 L 121.428992 581.610305 " transform="matrix(0.0537544,0,0,0.0534172,0,0.0140097)"/>
<path style="fill:none;stroke-width:10;stroke-linecap:butt;stroke-linejoin:miter;stroke:rgb(100%,100%,100%);stroke-opacity:1;stroke-miterlimit:10;" d="M 91.489587 348.773523 L 125.789099 348.773523 " transform="matrix(0.0537544,0,0,0.0534172,0,0.0140097)"/>
<path style="fill:none;stroke-width:10;stroke-linecap:butt;stroke-linejoin:miter;stroke:rgb(100%,100%,100%);stroke-opacity:1;stroke-miterlimit:10;" d="M 121.428992 575.833261 L 121.428992 575.833261 " transform="matrix(0.0537544,0,0,0.0534172,0,0.0140097)"/>
<path style="fill:none;stroke-width:10;stroke-linecap:butt;stroke-linejoin:miter;stroke:rgb(100%,100%,100%);stroke-opacity:1;stroke-miterlimit:10;" d="M 118.23158 576.564533 L 450.471765 575.467626 " transform="matrix(0.0537544,0,0,0.0534172,0,0.0140097)"/>
<path style="fill:none;stroke-width:10;stroke-linecap:butt;stroke-linejoin:miter;stroke:rgb(100%,100%,100%);stroke-opacity:1;stroke-miterlimit:10;" d="M 445.53031 571.006871 L 444.58562 342.996479 " transform="matrix(0.0537544,0,0,0.0534172,0,0.0140097)"/>
<path style="fill:none;stroke-width:10;stroke-linecap:butt;stroke-linejoin:miter;stroke:rgb(100%,100%,100%);stroke-opacity:1;stroke-miterlimit:10;" d="M 469.583569 604.718478 L 468.566211 344.020259 " transform="matrix(0.0537544,0,0,0.0534172,0,0.0140097)"/>
<path style="fill:none;stroke-width:10;stroke-linecap:butt;stroke-linejoin:miter;stroke:rgb(100%,100%,100%);stroke-opacity:1;stroke-miterlimit:10;" d="M 473.507666 348.33476 L 439.716833 347.82287 " transform="matrix(0.0537544,0,0,0.0534172,0,0.0140097)"/>
<path style="fill:none;stroke-width:10;stroke-linecap:butt;stroke-linejoin:miter;stroke:rgb(100%,100%,100%);stroke-opacity:1;stroke-miterlimit:10;" d="M 299.902722 599.81896 L 474.597693 599.672706 " transform="matrix(0.0537544,0,0,0.0534172,0,0.0140097)"/>
<path style="fill:none;stroke-width:10;stroke-linecap:butt;stroke-linejoin:miter;stroke:rgb(100%,100%,100%);stroke-opacity:1;stroke-miterlimit:10;" d="M 154.49314 330.49174 L 101.881177 348.773523 " transform="matrix(0.0537544,0,0,0.0534172,0,0.0140097)"/>
<path style="fill:none;stroke-width:10;stroke-linecap:butt;stroke-linejoin:miter;stroke:rgb(100%,100%,100%);stroke-opacity:1;stroke-miterlimit:10;" d="M 420.023682 332.173664 L 458.101953 347.969124 " transform="matrix(0.0537544,0,0,0.0534172,0,0.0140097)"/>
<path style="fill:none;stroke-width:10;stroke-linecap:butt;stroke-linejoin:miter;stroke:rgb(100%,100%,100%);stroke-opacity:1;stroke-miterlimit:10;" d="M 158.271899 242.666057 L 157.835889 481.718645 " transform="matrix(0.0537544,0,0,0.0534172,0,0.0140097)"/>
<path style="fill:none;stroke-width:10;stroke-linecap:butt;stroke-linejoin:miter;stroke:rgb(100%,100%,100%);stroke-opacity:1;stroke-miterlimit:10;" d="M 421.767725 525.083033 L 421.331714 286.615462 " transform="matrix(0.0537544,0,0,0.0534172,0,0.0140097)"/>
<path style="fill:none;stroke-width:10;stroke-linecap:butt;stroke-linejoin:miter;stroke:rgb(100%,100%,100%);stroke-opacity:1;stroke-miterlimit:10;" d="M 282.898303 575.833261 L 282.898303 334.586859 " transform="matrix(0.0537544,0,0,0.0534172,0,0.0140097)"/>
<path style="fill:none;stroke-width:10;stroke-linecap:butt;stroke-linejoin:miter;stroke:rgb(100%,100%,100%);stroke-opacity:1;stroke-miterlimit:10;" d="M 195.623486 457.001675 L 196.132166 220.727918 " transform="matrix(0.0537544,0,0,0.0534172,0,0.0140097)"/>
<path style="fill:none;stroke-width:10;stroke-linecap:butt;stroke-linejoin:miter;stroke:rgb(100%,100%,100%);stroke-opacity:1;stroke-miterlimit:10;" d="M 161.614648 247.492448 L 195.986829 258.90028 " transform="matrix(0.0537544,0,0,0.0534172,0,0.0140097)"/>
<path style="fill:none;stroke-width:10;stroke-linecap:butt;stroke-linejoin:miter;stroke:rgb(100%,100%,100%);stroke-opacity:1;stroke-miterlimit:10;" d="M 287.476416 571.299379 C 299.176038 560.915327 319.014526 545.704884 346.991882 534.516433 C 378.021313 522.084821 405.271985 519.964134 421.477051 519.964134 " transform="matrix(0.0537544,0,0,0.0534172,0,0.0140097)"/>
<path style="fill:none;stroke-width:10;stroke-linecap:butt;stroke-linejoin:miter;stroke:rgb(100%,100%,100%);stroke-opacity:1;stroke-miterlimit:10;" d="M 156.963867 476.672873 C 172.224243 479.671085 198.530225 486.910671 225.417554 506.289361 C 256.66499 528.812517 272.724719 556.088936 279.77356 570.421854 " transform="matrix(0.0537544,0,0,0.0534172,0,0.0140097)"/>
<path style="fill:none;stroke-width:10;stroke-linecap:butt;stroke-linejoin:miter;stroke:rgb(100%,100%,100%);stroke-opacity:1;stroke-miterlimit:10;" d="M 192.498743 451.809649 C 203.980359 454.807861 230.504346 463.290608 251.796204 488.007578 C 277.88418 518.135956 279.482886 552.798215 279.482886 563.986666 " transform="matrix(0.0537544,0,0,0.0534172,0,0.0140097)"/>
<path style="fill:none;stroke-width:10;stroke-linecap:butt;stroke-linejoin:miter;stroke:rgb(100%,100%,100%);stroke-opacity:1;stroke-miterlimit:10;" d="M 123.609045 559.525911 C 138.433411 553.163851 162.704675 545.266121 193.007422 545.704884 C 232.103052 546.216774 261.533777 560.33031 276.576147 569.032438 " transform="matrix(0.0537544,0,0,0.0534172,0,0.0140097)"/>
<path style="fill:none;stroke-width:10;stroke-linecap:butt;stroke-linejoin:miter;stroke:rgb(100%,100%,100%);stroke-opacity:1;stroke-miterlimit:10;" d="M 291.763855 570.714362 C 307.823584 561.280963 337.69032 546.874918 377.22196 545.924265 C 404.981311 545.192994 427.871875 551.481927 443.204919 557.185843 " transform="matrix(0.0537544,0,0,0.0534172,0,0.0140097)"/>
<path style="fill:none;stroke-width:10;stroke-linecap:butt;stroke-linejoin:miter;stroke:rgb(100%,100%,100%);stroke-opacity:1;stroke-miterlimit:10;" d="M 282.898303 340.729538 C 283.334314 331.369266 283.479651 295.902608 257.60968 263.799798 C 236.099817 237.181522 208.776477 228.33314 198.893567 225.481181 " transform="matrix(0.0537544,0,0,0.0534172,0,0.0140097)"/>
<path style="fill:none;stroke-width:10;stroke-linecap:butt;stroke-linejoin:miter;stroke:rgb(100%,100%,100%);stroke-opacity:1;stroke-miterlimit:10;" d="M 281.735608 343.288988 C 295.179272 332.173664 316.907141 317.109475 346.701208 305.921024 C 378.966003 293.781921 407.524707 291.51498 425.619153 291.368726 " transform="matrix(0.0537544,0,0,0.0534172,0,0.0140097)"/>
<path style="fill:none;stroke-width:10;stroke-linecap:butt;stroke-linejoin:miter;stroke:rgb(100%,100%,100%);stroke-opacity:1;stroke-miterlimit:10;" d="M 97.811743 599.672706 L 266.911243 599.30707 " transform="matrix(0.0537544,0,0,0.0534172,0,0.0140097)"/>
<path style="fill:none;stroke-width:10;stroke-linecap:butt;stroke-linejoin:miter;stroke:rgb(100%,100%,100%);stroke-opacity:1;stroke-miterlimit:10;" d="M 262.696472 601.281503 C 264.295178 599.30707 270.399329 592.506247 280.282239 591.40934 C 293.87124 589.800543 302.882129 600.403977 303.972156 601.574011 " transform="matrix(0.0537544,0,0,0.0534172,0,0.0140097)"/>
</g>
</svg>
