<?xml version="1.0" encoding="utf-8"?>
<!-- Generator: Adobe Illustrator 25.1.0, SVG Export Plug-In . SVG Version: 6.00 Build 0)  -->
<svg version="1.1" xmlns="http://www.w3.org/2000/svg" xmlns:xlink="http://www.w3.org/1999/xlink" x="0px" y="0px"
	 viewBox="0 0 595.3 841.9" style="enable-background:new 0 0 595.3 841.9;" xml:space="preserve">
<style type="text/css">
	.st0{opacity:0.6;fill:#92278F;stroke:#92278F;stroke-miterlimit:10;}
	.st1{opacity:0.5;fill:#92278F;stroke:#92278F;stroke-miterlimit:10;}
	.st2{opacity:0.3;fill:#92278F;stroke:#92278F;stroke-miterlimit:10;}
	.st3{opacity:0.4;fill:#92278F;stroke:#92278F;stroke-miterlimit:10;}
	.st4{fill:none;stroke:#FFFFFF;stroke-width:16;stroke-miterlimit:10;}
</style>
<g id="Layer_2">
	<path class="st0" d="M426.5,668.5H165.9C107.4,668.5,60,621.1,60,562.6V302c0-58.5,47.4-105.9,105.9-105.9h260.7
		c58.5,0,105.9,47.4,105.9,105.9v260.7C532.4,621.1,485,668.5,426.5,668.5z"/>
	<path class="st1" d="M338.1,698.8l-245-88.9c-55-20-83.4-80.7-63.4-135.7l88.9-245c20-55,80.7-83.4,135.7-63.4l245,88.9
		c55,20,83.4,80.7,63.4,135.7l-88.9,245C453.8,690.4,393.1,718.8,338.1,698.8z"/>
	<path class="st2" d="M127.9,645.3L28,404.6c-22.4-54,3.2-116,57.2-138.4L326,166.2c54-22.4,116,3.2,138.4,57.2l99.9,240.7
		c22.4,54-3.2,116-57.2,138.4l-240.7,99.9C212.3,725,150.4,699.3,127.9,645.3z"/>
	<path class="st3" d="M232.5,694.7L41.4,517.4C-1.5,477.6-4,410.6,35.8,367.7l177.3-191.1c39.8-42.9,106.8-45.4,149.7-5.6
		l191.1,177.3c42.9,39.8,45.4,106.8,5.6,149.7L382.2,689C342.4,731.9,275.4,734.4,232.5,694.7z"/>
</g>
<g id="Layer_1">
	<line class="st4" x1="93.1" y1="338.3" x2="93.1" y2="618.1"/>
	<line class="st4" x1="119.6" y1="338.3" x2="120" y2="593.3"/>
	<line class="st4" x1="87" y1="347.4" x2="123.7" y2="347.4"/>
	<line class="st4" x1="120" y1="587.1" x2="120" y2="587.1"/>
	<line class="st4" x1="113" y1="586.4" x2="475" y2="585.3"/>
	<line class="st4" x1="467.6" y1="582" x2="466.6" y2="337.4"/>
	<line class="st4" x1="493.5" y1="618.1" x2="492.4" y2="338.5"/>
	<line class="st4" x1="499.8" y1="343.1" x2="463.5" y2="342.5"/>
	<line class="st4" x1="314.7" y1="617.6" x2="500.8" y2="617.5"/>
	<line class="st4" x1="155.5" y1="324" x2="95.5" y2="346.6"/>
	<line class="st4" x1="440.2" y1="325.9" x2="481.1" y2="342.8"/>
	<line class="st4" x1="159.6" y1="229.8" x2="159" y2="486.1"/>
	<line class="st4" x1="442.2" y1="532.7" x2="441.6" y2="276.9"/>
	<line class="st4" x1="293.8" y1="587.1" x2="293.8" y2="328.4"/>
	<line class="st4" x1="199.6" y1="459.7" x2="200.1" y2="206.3"/>
	<line class="st4" x1="164.4" y1="237" x2="201.3" y2="249.2"/>
	<path class="st4" d="M298.1,582.3c13.4-11.5,36-28.3,67.9-41c35.2-14,66-16.9,84.4-17.3"/>
	<path class="st4" d="M152.5,477.6c17,3.3,46.5,11.2,76.6,32.6c35,24.9,52.8,55.2,60.7,71"/>
	<path class="st4" d="M193.7,451.3c12.6,3.3,41.8,12.8,65.1,40.1c28.4,33.3,29.7,71.5,29.6,83.9"/>
	<path class="st4" d="M122.3,569.7c15.9-6.8,41.9-15.3,74.4-14.9c41.9,0.5,73.5,15.6,89.7,25"/>
	<path class="st4" d="M302.8,581.7c17.2-10.1,49.2-25.6,91.6-26.6c29.9-0.7,54.4,6,70.8,12.1"/>
	<path class="st4" d="M293.6,334.7c0.4-9.7,0.8-47.2-26.5-80.8c-22.6-28-51.3-37.3-61.8-40.2"/>
	<path class="st4" d="M293.3,341.5c14-13.6,36.8-31.9,69-44c34.9-13.2,66.4-13.6,86.6-12"/>
	<line class="st4" x1="86.1" y1="618.3" x2="266" y2="617.9"/>
	<path class="st4" d="M260.1,620.1c2.4-2.2,11.3-9.9,25.8-11.3c20-1.9,33.6,9.7,35.2,11.1"/>
</g>
</svg>
