<?xml version="1.0" encoding="utf-8"?>
<!-- Generator: Adobe Illustrator 25.1.0, SVG Export Plug-In . SVG Version: 6.00 Build 0)  -->
<svg version="1.1" xmlns="http://www.w3.org/2000/svg" xmlns:xlink="http://www.w3.org/1999/xlink" x="0px" y="0px"
	 viewBox="0 0 595.3 841.9" style="enable-background:new 0 0 595.3 841.9;" xml:space="preserve">
<style type="text/css">
	.st0{opacity:0.3;fill:#92278F;stroke:#92278F;stroke-miterlimit:10;}
	.st1{opacity:0.4;fill:#92278F;stroke:#92278F;stroke-miterlimit:10;}
	.st2{opacity:0.5;fill:#92278F;stroke:#92278F;stroke-miterlimit:10;}
	.st3{opacity:0.2;fill:#92278F;stroke:#92278F;stroke-miterlimit:10;}
	.st4{fill:#FFFFFF;}
	.st5{font-family:'MyriadPro-Regular';}
	.st6{font-size:525.0147px;}
	.st7{font-size:414.1934px;}
	.st8{display:none;}
	.st9{display:inline;fill:none;stroke:#FFFFFF;stroke-width:10;stroke-miterlimit:10;}
</style>
<g id="Layer_2">
	<path class="st0" d="M137.4,664.7L17.5,319.2c-6-17.3,3.2-36.2,20.5-42.2l351.7-122.1c17.3-6,36.2,3.2,42.2,20.5l119.9,345.5
		c6,17.3-3.2,36.2-20.5,42.2L179.7,685.2C162.3,691.2,143.4,682,137.4,664.7z"/>
	<path class="st1" d="M287.3,698.1L15.1,453.9C1.4,441.6,0.3,420.6,12.5,407l248.6-277.1c12.2-13.6,33.2-14.8,46.9-2.5l272.2,244.2
		c13.6,12.2,14.8,33.2,2.5,46.9L334.1,695.5C321.9,709.2,300.9,710.3,287.3,698.1z"/>
	<path class="st2" d="M467.5,639.4H101.8c-18.3,0-33.2-14.9-33.2-33.2V233.9c0-18.3,14.9-33.2,33.2-33.2h365.7
		c18.3,0,33.2,14.9,33.2,33.2v372.3C500.7,624.5,485.8,639.4,467.5,639.4z"/>
	<path class="st3" d="M383.9,687.8L39.1,565.9c-17.3-6.1-26.3-25.1-20.2-42.4L143,172.6c6.1-17.3,25.1-26.3,42.4-20.2l344.8,121.9
		c17.3,6.1,26.3,25.1,20.2,42.4L426.3,667.6C420.2,684.9,401.2,693.9,383.9,687.8z"/>
</g>
<g id="Layer_3">
	<text transform="matrix(1 0 0 1 152.112 594.5469)" class="st4 st5 st6">L</text>
	<text transform="matrix(1 0 0 1 234.6305 540.463)" class="st4 st5 st7">S</text>
</g>
<g id="Layer_1" class="st8">
	<line class="st9" x1="96.4" y1="343.8" x2="96.4" y2="604.7"/>
	<line class="st9" x1="121" y1="343.8" x2="121.4" y2="581.6"/>
	<line class="st9" x1="91.5" y1="348.8" x2="125.8" y2="348.8"/>
	<line class="st9" x1="121.4" y1="575.8" x2="121.4" y2="575.8"/>
	<line class="st9" x1="118.2" y1="576.6" x2="450.5" y2="575.5"/>
	<line class="st9" x1="445.5" y1="571" x2="444.6" y2="343"/>
	<line class="st9" x1="469.6" y1="604.7" x2="468.6" y2="344"/>
	<line class="st9" x1="473.5" y1="348.3" x2="439.7" y2="347.8"/>
	<line class="st9" x1="299.9" y1="599.8" x2="474.6" y2="599.7"/>
	<line class="st9" x1="154.5" y1="330.5" x2="101.9" y2="348.8"/>
	<line class="st9" x1="420" y1="332.2" x2="458.1" y2="348"/>
	<line class="st9" x1="158.3" y1="242.7" x2="157.8" y2="481.7"/>
	<line class="st9" x1="421.8" y1="525.1" x2="421.3" y2="286.6"/>
	<line class="st9" x1="282.9" y1="575.8" x2="282.9" y2="334.6"/>
	<line class="st9" x1="195.6" y1="457" x2="196.1" y2="220.7"/>
	<line class="st9" x1="161.6" y1="247.5" x2="196" y2="258.9"/>
	<path class="st9" d="M287.5,571.3c11.7-10.4,31.5-25.6,59.5-36.8c31-12.4,58.3-14.5,74.5-14.5"/>
	<path class="st9" d="M157,476.7c15.2,3,41.5,10.2,68.4,29.6c31.3,22.5,47.3,49.8,54.4,64.1"/>
	<path class="st9" d="M192.5,451.8c11.5,3,38,11.5,59.3,36.2c26.1,30.1,27.7,64.8,27.7,76"/>
	<path class="st9" d="M123.6,559.5c14.8-6.3,39.1-14.2,69.4-13.8c39.1,0.5,68.5,14.6,83.6,23.3"/>
	<path class="st9" d="M291.8,570.7c16-9.4,45.9-23.8,85.4-24.8c27.8-0.7,50.7,5.6,66,11.3"/>
	<path class="st9" d="M282.9,340.7c0.4-9.3,0.6-44.8-25.3-76.9c-21.5-26.6-48.8-35.5-58.7-38.3"/>
	<path class="st9" d="M281.7,343.3c13.5-11.1,35.2-26.2,65-37.4c32.3-12.1,60.8-14.4,78.9-14.5"/>
	<line class="st9" x1="97.8" y1="599.7" x2="266.9" y2="599.3"/>
	<path class="st9" d="M262.7,601.3c1.6-2,7.7-8.8,17.6-9.9c13.6-1.6,22.6,9,23.7,10.2"/>
</g>
</svg>
