<svg width="29" height="29" viewBox="0 0 29 29" fill="none" xmlns="http://www.w3.org/2000/svg">
<g id="Setting_line">
<path id="Subtract" d="M17.0812 4.06173L16.0862 4.16123V4.16123L17.0812 4.06173ZM16.7714 2.76644L17.5312 2.11623V2.11623L16.7714 2.76644ZM17.682 6.33271L18.2296 5.49594L18.2296 5.49594L17.682 6.33271ZM18.0251 6.47481L17.8206 7.45368L18.0251 6.47481ZM20.0558 5.29386L19.4558 4.49386L19.4389 4.50653L19.4225 4.5199L20.0558 5.29386ZM20.0558 5.29385L20.6558 6.09385L20.6727 6.08118L20.689 6.0678L20.0558 5.29385ZM21.1907 4.59698L21.2682 5.59398L21.2682 5.59398L21.1907 4.59698ZM21.4444 4.60964L21.6207 3.6253L21.6207 3.6253L21.4444 4.60964ZM22.5044 5.41598L23.2115 4.70887L23.2115 4.70887L22.5044 5.41598ZM23.584 6.49559L22.8769 7.20269H22.8769L23.584 6.49559ZM24.3903 7.55554L23.406 7.73182V7.73182L24.3903 7.55554ZM24.403 7.80927L25.4 7.88672L25.4 7.88671L24.403 7.80927ZM23.7061 8.9442L22.9321 8.31096L22.9321 8.31096L23.7061 8.9442ZM22.5251 10.9749L23.504 10.7704V10.7704L22.5251 10.9749ZM22.6672 11.3179L23.504 10.7704L22.6672 11.3179ZM24.9383 11.9188L25.0378 10.9238H25.0378L24.9383 11.9188ZM26.2336 12.2286L26.8838 11.4688L26.8838 11.4688L26.2336 12.2286ZM26.404 12.4169L25.5833 12.9883L25.5834 12.9883L26.404 12.4169ZM26.4041 16.583L25.5834 16.0117L25.5834 16.0117L26.4041 16.583ZM26.2335 16.7715L26.8836 17.5313L26.2335 16.7715ZM24.9384 17.0812L25.0379 18.0762L24.9384 17.0812ZM22.6678 17.6818L21.8312 17.134L22.6678 17.6818ZM22.5255 18.0253L21.5466 17.821V17.821L22.5255 18.0253ZM23.7063 20.0554L22.9323 20.6886L23.7063 20.0554ZM24.403 21.19L25.4 21.1124L25.4 21.1124L24.403 21.19ZM24.3904 21.4441L23.406 21.2676L23.406 21.2676L24.3904 21.4441ZM23.5842 22.5037L24.2913 23.2108L24.2913 23.2108L23.5842 22.5037ZM22.5044 23.5835L21.7973 22.8764H21.7973L22.5044 23.5835ZM21.4445 24.3898L21.2682 23.4055L21.4445 24.3898ZM21.1907 24.4025L21.1133 25.3995H21.1133L21.1907 24.4025ZM20.0558 23.7056L19.3487 24.4127L19.384 24.448L19.4226 24.4796L20.0558 23.7056ZM20.0558 23.7056L20.7629 22.9985L20.7277 22.9632L20.6891 22.9316L20.0558 23.7056ZM18.0252 22.5246L18.2297 23.5035H18.2297L18.0252 22.5246ZM17.6821 22.6667L18.2297 23.5035L18.2297 23.5035L17.6821 22.6667ZM17.0812 24.938L16.0862 24.8385L17.0812 24.938ZM16.7714 26.2336L17.531 26.884L17.531 26.884L16.7714 26.2336ZM16.5832 26.4039L16.0117 25.5833L16.0117 25.5833L16.5832 26.4039ZM12.4169 26.404L12.9883 25.5833L12.9883 25.5833L12.4169 26.404ZM12.2286 26.2335L12.9883 25.5833H12.9883L12.2286 26.2335ZM11.9188 24.9382L10.9238 25.0377V25.0377L11.9188 24.9382ZM11.318 22.6672L10.7704 23.504H10.7704L11.318 22.6672ZM10.975 22.5251L11.1795 21.5463L11.1795 21.5463L10.975 22.5251ZM8.94419 23.7061L8.31096 22.9322H8.31096L8.94419 23.7061ZM7.80922 24.403L7.73179 23.406L7.73177 23.406L7.80922 24.403ZM7.55554 24.3904L7.37928 25.3747L7.3793 25.3747L7.55554 24.3904ZM6.49555 23.584L5.78844 24.2911L6.49555 23.584ZM5.41597 22.5044L6.12308 21.7973L5.41597 22.5044ZM4.60961 21.4444L3.62527 21.6207L3.62527 21.6207L4.60961 21.4444ZM4.59696 21.1907L3.59996 21.1133L3.59996 21.1133L4.59696 21.1907ZM5.29385 20.0558L4.5199 19.4225H4.5199L5.29385 20.0558ZM6.47483 18.0251L5.49596 18.2296L5.49596 18.2296L6.47483 18.0251ZM6.33273 17.682L5.49596 18.2296L5.49596 18.2296L6.33273 17.682ZM4.06176 17.0812L4.16126 16.0861L4.11164 16.0812H4.06176V17.0812ZM4.06175 17.0812L3.96225 18.0762L4.01187 18.0812H4.06175V17.0812ZM2.76648 16.7714L3.41669 16.0117L3.41669 16.0117L2.76648 16.7714ZM2.59601 16.5831L1.77532 17.1544H1.77532L2.59601 16.5831ZM2.59607 12.4168L1.77546 11.8453L1.77546 11.8453L2.59607 12.4168ZM2.76638 12.2286L3.41669 12.9883L3.41669 12.9883L2.76638 12.2286ZM4.06189 11.9188V10.9188H4.01201L3.96238 10.9238L4.06189 11.9188ZM4.0619 11.9188V12.9188H4.11177L4.1614 12.9138L4.0619 11.9188ZM6.33328 11.3178L7.17015 11.8652L7.17015 11.8652L6.33328 11.3178ZM6.47524 10.975L7.45407 11.1797L7.45407 11.1797L6.47524 10.975ZM5.29406 8.94385L6.06802 8.31062L6.06802 8.31062L5.29406 8.94385ZM4.597 7.80854L3.59999 7.88582L3.59999 7.88582L4.597 7.80854ZM4.60963 7.55517L3.62526 7.37907H3.62526L4.60963 7.55517ZM5.41617 6.49489L4.70906 5.78778H4.70906L5.41617 6.49489ZM6.4956 5.41546L5.78849 4.70835V4.70835L6.4956 5.41546ZM6.4956 5.41546L5.7885 4.70835L5.7885 4.70835L6.4956 5.41546ZM7.55559 4.60909L7.37934 3.62474L7.37934 3.62474L7.55559 4.60909ZM7.80928 4.59643L7.88671 3.59943L7.88671 3.59943L7.80928 4.59643ZM8.94434 5.29341L9.57758 4.51945L9.57758 4.51945L8.94434 5.29341ZM10.9748 6.47437L11.1791 7.45327L11.1791 7.45327L10.9748 6.47437ZM11.3182 6.33214L11.8659 7.16881L11.8659 7.16881L11.3182 6.33214ZM11.9189 4.06157L12.9139 4.16107V4.16107L11.9189 4.06157ZM12.2285 2.76654L12.9883 3.41666L12.9883 3.41666L12.2285 2.76654ZM12.4171 2.5959L11.8458 1.77515L11.8458 1.77515L12.4171 2.5959ZM16.5831 2.59598L17.1545 1.7753L17.1545 1.7753L16.5831 2.59598ZM18.0762 3.96223C18.0432 3.63166 18.0118 3.30487 17.9552 3.03435C17.8944 2.74399 17.7856 2.41344 17.5312 2.11623L16.0117 3.41666C15.9614 3.35788 15.9722 3.32269 15.9976 3.44422C16.0272 3.5856 16.0488 3.78723 16.0862 4.16123L18.0762 3.96223ZM18.2296 5.49594C18.3651 5.58463 18.325 5.67901 18.257 5.37995C18.1906 5.08745 18.146 4.6596 18.0762 3.96222L16.0862 4.16123C16.1504 4.80338 16.2062 5.38017 16.3067 5.82286C16.4057 6.25898 16.599 6.81909 17.1345 7.16948L18.2296 5.49594ZM18.2296 5.49594L18.2296 5.49594L17.1345 7.16947C17.3434 7.30621 17.5762 7.40261 17.8206 7.45368L18.2296 5.49594ZM19.4225 4.5199C18.8801 4.9637 18.546 5.23466 18.2922 5.39451C18.0327 5.55796 18.071 5.46282 18.2296 5.49594L17.8206 7.45368C18.447 7.58454 18.9797 7.32515 19.3581 7.0868C19.7422 6.84486 20.1896 6.47647 20.689 6.06781L19.4225 4.5199ZM19.4558 4.49385L19.4558 4.49386L20.6558 6.09386L20.6558 6.09385L19.4558 4.49385ZM21.1132 3.59999C20.7232 3.63029 20.4125 3.78706 20.1642 3.94938C19.9329 4.10061 19.6797 4.30953 19.4226 4.51989L20.689 6.0678C20.9799 5.8298 21.1377 5.70244 21.2586 5.6234C21.3625 5.55547 21.3453 5.58799 21.2682 5.59398L21.1132 3.59999ZM21.6207 3.6253C21.4533 3.59532 21.2828 3.58681 21.1132 3.59999L21.2682 5.59398L21.2682 5.59398L21.6207 3.6253ZM23.2115 4.70887C22.9766 4.47397 22.7454 4.24089 22.5302 4.06739C22.2993 3.88116 22.0058 3.69426 21.6207 3.6253L21.2682 5.59398C21.192 5.58034 21.1781 5.54627 21.2747 5.62421C21.3872 5.71488 21.5315 5.85731 21.7973 6.12309L23.2115 4.70887ZM24.2911 5.78848L23.2115 4.70887L21.7973 6.12309L22.8769 7.20269L24.2911 5.78848ZM25.3747 7.37927C25.3057 6.9942 25.1188 6.70065 24.9326 6.46973C24.7591 6.25458 24.526 6.02339 24.2911 5.78848L22.8769 7.20269C23.1427 7.46848 23.2851 7.6128 23.3758 7.72523C23.4537 7.82188 23.4196 7.80796 23.406 7.73182L25.3747 7.37927ZM25.4 7.88671C25.4132 7.71719 25.4046 7.54666 25.3747 7.37926L23.406 7.73182L23.406 7.73183L25.4 7.88671ZM24.4801 9.57743C24.6904 9.32032 24.8994 9.06708 25.0506 8.83574C25.2129 8.58743 25.3697 8.27673 25.4 7.88672L23.406 7.73181C23.412 7.65469 23.4445 7.63744 23.3766 7.74137C23.2975 7.86227 23.1702 8.02005 22.9321 8.31096L24.4801 9.57743ZM23.504 10.7704C23.5371 10.929 23.442 10.9673 23.6054 10.7078C23.7653 10.454 24.0362 10.1199 24.4801 9.57743L22.9321 8.31096C22.5235 8.81044 22.1551 9.25776 21.9131 9.64188C21.6748 10.0203 21.4154 10.553 21.5463 11.1794L23.504 10.7704ZM23.504 10.7704V10.7704L21.5463 11.1794C21.5973 11.4239 21.6937 11.6565 21.8304 11.8655L23.504 10.7704ZM25.0378 10.9238C24.3404 10.854 23.9125 10.8094 23.62 10.743C23.3209 10.675 23.4153 10.6349 23.504 10.7704L21.8304 11.8655C22.1808 12.401 22.741 12.5942 23.1771 12.6933C23.6198 12.7938 24.1966 12.8496 24.8387 12.9138L25.0378 10.9238ZM26.8838 11.4688C26.5866 11.2145 26.256 11.1056 25.9657 11.0448C25.6951 10.9882 25.3683 10.9568 25.0378 10.9238L24.8387 12.9138C25.2128 12.9513 25.4144 12.9728 25.5558 13.0024C25.6773 13.0278 25.6421 13.0386 25.5834 12.9883L26.8838 11.4688ZM27.2247 11.8455C27.1275 11.706 27.013 11.5794 26.8838 11.4688L25.5833 12.9883H25.5833L27.2247 11.8455ZM27.5834 13.7366C27.5834 13.4044 27.5847 13.0761 27.5552 12.8013C27.5236 12.5063 27.4482 12.1665 27.2247 11.8455L25.5834 12.9883C25.5392 12.9248 25.5534 12.8909 25.5666 13.0143C25.582 13.158 25.5834 13.3607 25.5834 13.7366H27.5834ZM27.5834 15.2635V13.7366H25.5834V15.2635H27.5834ZM27.2248 17.1543C27.4483 16.8333 27.5237 16.4936 27.5553 16.1987C27.5847 15.9239 27.5834 15.5957 27.5834 15.2635H25.5834C25.5834 15.6393 25.582 15.842 25.5666 15.9856C25.5534 16.1091 25.5392 16.0751 25.5834 16.0117L27.2248 17.1543ZM26.8836 17.5313C27.0129 17.4207 27.1276 17.294 27.2248 17.1543L25.5834 16.0117L25.5834 16.0117L26.8836 17.5313ZM25.0379 18.0762C25.3684 18.0431 25.6951 18.0118 25.9656 17.9552C26.2559 17.8944 26.5864 17.7856 26.8836 17.5313L25.5834 16.0117C25.6421 15.9614 25.6773 15.9722 25.5558 15.9976C25.4144 16.0272 25.2128 16.0487 24.8389 16.0861L25.0379 18.0762ZM23.5045 18.2295C23.4157 18.365 23.3214 18.3249 23.6204 18.257C23.9129 18.1906 24.3406 18.1459 25.0379 18.0762L24.8389 16.0861C24.1969 16.1503 23.6202 16.2061 23.1776 16.3066C22.7416 16.4056 22.1816 16.5988 21.8312 17.134L23.5045 18.2295ZM23.5045 18.2295V18.2295L21.8312 17.134C21.6942 17.3432 21.5977 17.5762 21.5466 17.821L23.5045 18.2295ZM24.4802 19.4222C24.0366 18.8799 23.7657 18.5459 23.6059 18.2921C23.4424 18.0327 23.5375 18.071 23.5045 18.2295L21.5466 17.821C21.4159 18.4472 21.6753 18.9798 21.9136 19.3581C22.1555 19.7421 22.5238 20.1893 22.9323 20.6886L24.4802 19.4222ZM25.4 21.1124C25.3697 20.7225 25.2129 20.4119 25.0506 20.1637C24.8994 19.9324 24.6906 19.6792 24.4802 19.4222L22.9323 20.6886C23.1703 20.9795 23.2976 21.1372 23.3766 21.2581C23.4446 21.362 23.412 21.3447 23.406 21.2676L25.4 21.1124ZM25.3747 21.6205C25.4047 21.4529 25.4132 21.2821 25.4 21.1124L23.406 21.2676L23.406 21.2676L25.3747 21.6205ZM24.2913 23.2108C24.5261 22.976 24.7591 22.7448 24.9326 22.5298C25.1188 22.2989 25.3057 22.0054 25.3747 21.6205L23.406 21.2676C23.4197 21.1915 23.4537 21.1776 23.3758 21.2742C23.2852 21.3866 23.1428 21.5309 22.8771 21.7966L24.2913 23.2108ZM23.2115 24.2906L24.2913 23.2108L22.8771 21.7966L21.7973 22.8764L23.2115 24.2906ZM23.2115 24.2906L23.2115 24.2906L21.7973 22.8764L21.7973 22.8764L23.2115 24.2906ZM21.6208 25.3741C22.0058 25.3052 22.2994 25.1183 22.5303 24.9321C22.7454 24.7586 22.9766 24.5255 23.2115 24.2906L21.7973 22.8764C21.5315 23.1421 21.3872 23.2846 21.2748 23.3752C21.1781 23.4532 21.1921 23.4191 21.2682 23.4055L21.6208 25.3741ZM21.1133 25.3995C21.2828 25.4126 21.4534 25.4041 21.6208 25.3741L21.2682 23.4055L21.2682 23.4055L21.1133 25.3995ZM19.4226 24.4796C19.6797 24.6899 19.933 24.8988 20.1643 25.0501C20.4126 25.2124 20.7233 25.3692 21.1133 25.3995L21.2682 23.4055C21.3453 23.4115 21.3626 23.444 21.2586 23.376C21.1378 23.297 20.98 23.1697 20.6891 22.9316L19.4226 24.4796ZM19.3487 24.4127L19.3487 24.4127L20.763 22.9985L20.7629 22.9985L19.3487 24.4127ZM18.2297 23.5035C18.0711 23.5366 18.0328 23.4415 18.2923 23.6049C18.5461 23.7648 18.8802 24.0357 19.4226 24.4795L20.6891 22.9316C20.1896 22.523 19.7423 22.1546 19.3582 21.9126C18.9798 21.6743 18.447 21.4149 17.8207 21.5458L18.2297 23.5035ZM18.2297 23.5035H18.2297L17.8207 21.5458C17.5762 21.5968 17.3435 21.6932 17.1345 21.83L18.2297 23.5035ZM18.0763 25.0375C18.146 24.34 18.1907 23.9121 18.2571 23.6195C18.325 23.3204 18.3652 23.4148 18.2297 23.5035L17.1345 21.83C16.5991 22.1804 16.4058 22.7405 16.3068 23.1767C16.2062 23.6194 16.1504 24.1962 16.0862 24.8385L18.0763 25.0375ZM17.531 26.884C17.7855 26.5867 17.8944 26.2561 17.9552 25.9656C18.0118 25.695 18.0432 25.3681 18.0763 25.0375L16.0862 24.8385C16.0488 25.2126 16.0273 25.4143 15.9976 25.5557C15.9722 25.6773 15.9614 25.6421 16.0117 25.5833L17.531 26.884ZM17.1547 27.2245C17.2941 27.1274 17.4206 27.013 17.531 26.884L16.0117 25.5833L16.0117 25.5833L17.1547 27.2245ZM15.2632 27.5833C15.5955 27.5833 15.9239 27.5847 16.1988 27.5552C16.4938 27.5236 16.8336 27.4481 17.1547 27.2245L16.0117 25.5833C16.0752 25.5391 16.1091 25.5534 15.9857 25.5666C15.842 25.582 15.6392 25.5833 15.2632 25.5833V27.5833ZM13.7366 27.5833H15.2632V25.5833H13.7366V27.5833ZM11.8455 27.2247C12.1666 27.4482 12.5063 27.5236 12.8013 27.5552C13.0761 27.5847 13.4044 27.5833 13.7366 27.5833V25.5833C13.3608 25.5833 13.158 25.582 13.0144 25.5666C12.8909 25.5534 12.9249 25.5391 12.9883 25.5833L11.8455 27.2247ZM11.4689 26.8838C11.5794 27.0129 11.706 27.1275 11.8455 27.2247L12.9883 25.5833L12.9883 25.5833L11.4689 26.8838ZM10.9238 25.0377C10.9569 25.3683 10.9882 25.6951 11.0448 25.9656C11.1056 26.256 11.2145 26.5866 11.4689 26.8838L12.9883 25.5833C13.0386 25.6421 13.0278 25.6773 13.0024 25.5558C12.9728 25.4144 12.9513 25.2127 12.9139 24.8387L10.9238 25.0377ZM10.7704 23.504C10.6349 23.4153 10.6751 23.3209 10.743 23.62C10.8094 23.9125 10.8541 24.3403 10.9238 25.0377L12.9139 24.8387C12.8497 24.1966 12.7939 23.6198 12.6933 23.1771C12.5943 22.7409 12.401 22.1808 11.8655 21.8304L10.7704 23.504ZM10.7704 23.504L10.7704 23.504L11.8655 21.8304C11.6566 21.6937 11.4239 21.5973 11.1795 21.5463L10.7704 23.504ZM9.57743 24.4801C10.1199 24.0362 10.454 23.7653 10.7078 23.6054C10.9673 23.442 10.929 23.5371 10.7704 23.504L11.1795 21.5463C10.5531 21.4154 10.0203 21.6748 9.64191 21.9131C9.25778 22.1551 8.81045 22.5235 8.31096 22.9322L9.57743 24.4801ZM7.88665 25.4C8.27668 25.3697 8.58739 25.2129 8.83571 25.0506C9.06706 24.8994 9.32031 24.6904 9.57743 24.4801L8.31096 22.9322C8.02004 23.1702 7.86225 23.2975 7.74135 23.3766C7.63742 23.4445 7.65466 23.412 7.73179 23.406L7.88665 25.4ZM7.3793 25.3747C7.54664 25.4047 7.71714 25.4132 7.88667 25.4L7.73177 23.406L7.73178 23.406L7.3793 25.3747ZM5.78844 24.2911C6.02336 24.526 6.25456 24.7591 6.46971 24.9326C6.70064 25.1188 6.9942 25.3058 7.37928 25.3747L7.73179 23.406C7.80794 23.4197 7.82186 23.4537 7.72521 23.3758C7.61277 23.2851 7.46844 23.1427 7.20265 22.8769L5.78844 24.2911ZM4.70887 23.2115L5.78844 24.2911L7.20265 22.8769L6.12308 21.7973L4.70887 23.2115ZM3.62527 21.6207C3.69422 22.0058 3.88113 22.2993 4.06736 22.5303C4.24087 22.7454 4.47395 22.9766 4.70887 23.2115L6.12308 21.7973C5.85729 21.5315 5.71486 21.3872 5.62419 21.2748C5.54624 21.1781 5.58032 21.192 5.59395 21.2682L3.62527 21.6207ZM3.59996 21.1133C3.58679 21.2828 3.5953 21.4533 3.62527 21.6207L5.59395 21.2682L5.59395 21.2682L3.59996 21.1133ZM4.5199 19.4225C4.30952 19.6797 4.1006 19.9329 3.94936 20.1642C3.78703 20.4126 3.63026 20.7233 3.59996 21.1133L5.59395 21.2682C5.58796 21.3453 5.55544 21.3625 5.62338 21.2586C5.70242 21.1377 5.82979 20.9799 6.06781 20.689L4.5199 19.4225ZM5.49596 18.2296C5.46284 18.071 5.55798 18.0327 5.39453 18.2922C5.23467 18.546 4.96371 18.8801 4.5199 19.4225L6.06781 20.689C6.47647 20.1895 6.84487 19.7422 7.08681 19.3581C7.32517 18.9797 7.58456 18.447 7.45369 17.8206L5.49596 18.2296ZM5.49596 18.2296L5.49596 18.2296L7.45369 17.8206C7.40263 17.5761 7.30623 17.3434 7.1695 17.1345L5.49596 18.2296ZM3.96225 18.0762C4.65963 18.1459 5.08748 18.1906 5.37997 18.257C5.67903 18.3249 5.58465 18.3651 5.49596 18.2296L7.1695 17.1345C6.81911 16.599 6.25901 16.4057 5.82289 16.3067C5.3802 16.2061 4.80341 16.1503 4.16126 16.0861L3.96225 18.0762ZM4.06175 18.0812H4.06176V16.0812H4.06175V18.0812ZM2.11626 17.5312C2.41347 17.7855 2.74402 17.8944 3.03438 17.9552C3.30489 18.0118 3.63169 18.0431 3.96225 18.0762L4.16125 16.0861C3.78725 16.0487 3.58563 16.0272 3.44425 15.9976C3.32273 15.9722 3.35792 15.9614 3.41669 16.0117L2.11626 17.5312ZM1.77532 17.1544C1.87249 17.294 1.98706 17.4206 2.11627 17.5312L3.41669 16.0117H3.41669L1.77532 17.1544ZM1.41669 15.2634C1.41669 15.5956 1.41535 15.9239 1.44479 16.1987C1.47639 16.4937 1.5518 16.8334 1.77532 17.1544L3.41669 16.0117C3.46089 16.0752 3.44664 16.1091 3.43341 15.9856C3.41802 15.842 3.41669 15.6393 3.41669 15.2634H1.41669ZM1.41669 13.7367V15.2634H3.41669V13.7367H1.41669ZM1.77546 11.8453C1.55186 12.1664 1.47642 12.5062 1.4448 12.8012C1.41535 13.0761 1.41669 13.4045 1.41669 13.7367H3.41669C3.41669 13.3608 3.41803 13.158 3.43342 13.0143C3.44665 12.8909 3.4609 12.9248 3.41669 12.9883L1.77546 11.8453ZM2.11608 11.469C1.98701 11.5794 1.87255 11.7059 1.77546 11.8453L3.41669 12.9883L3.41669 12.9883L2.11608 11.469ZM3.96238 10.9238C3.63176 10.9568 3.3049 10.9882 3.03434 11.0448C2.74392 11.1056 2.41332 11.2145 2.11608 11.469L3.41669 12.9883C3.35791 13.0386 3.32271 13.0278 3.44426 13.0024C3.58565 12.9728 3.78732 12.9512 4.16139 12.9138L3.96238 10.9238ZM4.0619 10.9188H4.06189V12.9188H4.0619V10.9188ZM5.49642 10.7704C5.5851 10.6348 5.67951 10.675 5.3804 10.7429C5.08785 10.8093 4.65992 10.854 3.96239 10.9238L4.1614 12.9138C4.80368 12.8496 5.38059 12.7938 5.82336 12.6932C6.25957 12.5942 6.81978 12.4008 7.17015 11.8652L5.49642 10.7704ZM5.49642 10.7704L5.49642 10.7704L7.17015 11.8652C7.30671 11.6564 7.40301 11.4239 7.45407 11.1797L5.49642 10.7704ZM4.5201 9.57709C4.96403 10.1197 5.23506 10.4539 5.39495 10.7077C5.55844 10.9673 5.46325 10.9289 5.49642 10.7704L7.45407 11.1797C7.58508 10.5532 7.32565 10.0203 7.08726 9.64185C6.84527 9.25764 6.47678 8.81022 6.06802 8.31062L4.5201 9.57709ZM3.59999 7.88582C3.63023 8.27597 3.78703 8.58677 3.9494 8.83516C4.10067 9.06657 4.30966 9.31989 4.52011 9.57709L6.06802 8.31062C5.82992 8.01961 5.70251 7.86177 5.62345 7.74083C5.55549 7.63686 5.58803 7.65411 5.59401 7.73127L3.59999 7.88582ZM3.62526 7.37907C3.59536 7.54623 3.58686 7.71651 3.59999 7.88582L5.59401 7.73127V7.73127L3.62526 7.37907ZM4.70906 5.78778C4.47409 6.02276 4.24093 6.25402 4.06739 6.46923C3.88111 6.70022 3.69417 6.99388 3.62526 7.37907L5.59401 7.73127C5.58038 7.80744 5.54629 7.82137 5.62425 7.72469C5.71494 7.61222 5.85742 7.46786 6.12328 7.20199L4.70906 5.78778ZM5.78849 4.70835L4.70906 5.78778L6.12328 7.20199L7.20271 6.12257L5.78849 4.70835ZM5.7885 4.70835L5.78849 4.70835L7.20271 6.12257L7.20271 6.12256L5.7885 4.70835ZM7.37934 3.62474C6.99426 3.69369 6.70069 3.8806 6.46976 4.06684C6.25461 4.24034 6.02341 4.47344 5.7885 4.70835L7.20271 6.12256C7.4685 5.85677 7.61283 5.71434 7.72526 5.62366C7.82192 5.54572 7.80799 5.5798 7.73184 5.59343L7.37934 3.62474ZM7.88671 3.59943C7.7172 3.58627 7.5467 3.59477 7.37934 3.62474L7.73184 5.59343L7.73184 5.59343L7.88671 3.59943ZM9.57758 4.51945C9.32042 4.30905 9.06715 4.10011 8.8358 3.94886C8.58748 3.78652 8.27676 3.62973 7.88671 3.59943L7.73184 5.59343C7.6547 5.58744 7.63745 5.55491 7.74142 5.62287C7.86234 5.70193 8.02015 5.82932 8.3111 6.06737L9.57758 4.51945ZM10.7705 5.49547C10.929 5.46237 10.9673 5.5575 10.7078 5.39403C10.4541 5.23417 10.12 4.96322 9.57758 4.51945L8.3111 6.06737C8.81053 6.476 9.2578 6.84435 9.64186 7.08627C10.0202 7.3246 10.5528 7.584 11.1791 7.45327L10.7705 5.49547ZM10.7705 5.49547L10.7705 5.49547L11.1791 7.45327C11.4238 7.4022 11.6568 7.30571 11.8659 7.16881L10.7705 5.49547ZM10.9238 3.96206C10.8541 4.65929 10.8095 5.08705 10.743 5.37949C10.6751 5.6785 10.635 5.58417 10.7705 5.49547L11.8659 7.16881C12.4012 6.8184 12.5944 6.2584 12.6934 5.82236C12.7939 5.37975 12.8497 4.80308 12.9139 4.16107L10.9238 3.96206ZM11.4687 2.11642C11.2144 2.4136 11.1056 2.74408 11.0448 3.03438C10.9882 3.30485 10.9569 3.63158 10.9238 3.96206L12.9139 4.16107C12.9513 3.78715 12.9728 3.58556 13.0024 3.44422C13.0278 3.32271 13.0386 3.35789 12.9883 3.41666L11.4687 2.11642ZM11.8458 1.77515C11.7061 1.8724 11.5793 1.98708 11.4687 2.11642L12.9883 3.41666L12.9883 3.41666L11.8458 1.77515ZM13.7365 1.41666C13.4043 1.41666 13.0761 1.41532 12.8013 1.44475C12.5064 1.47634 12.1668 1.55172 11.8458 1.77515L12.9883 3.41666C12.9249 3.46084 12.8909 3.4466 13.0144 3.43337C13.158 3.41799 13.3607 3.41666 13.7365 3.41666V1.41666ZM15.2634 1.41666H13.7365V3.41666H15.2634V1.41666ZM17.1545 1.7753C16.8334 1.55178 16.4937 1.47636 16.1987 1.44476C15.9239 1.41532 15.5956 1.41666 15.2634 1.41666V3.41666C15.6393 3.41666 15.842 3.41799 15.9857 3.43338C16.1091 3.44661 16.0752 3.46086 16.0117 3.41666L17.1545 1.7753ZM17.5312 2.11623C17.4206 1.98703 17.294 1.87246 17.1545 1.7753L16.0117 3.41666L16.0117 3.41666L17.5312 2.11623ZM18.3334 14.5C18.3334 16.6171 16.6171 18.3333 14.5 18.3333V20.3333C17.7217 20.3333 20.3334 17.7217 20.3334 14.5H18.3334ZM14.5 10.6667C16.6171 10.6667 18.3334 12.3829 18.3334 14.5H20.3334C20.3334 11.2783 17.7217 8.66666 14.5 8.66666V10.6667ZM10.6667 14.5C10.6667 12.3829 12.3829 10.6667 14.5 10.6667V8.66666C11.2784 8.66666 8.66668 11.2783 8.66668 14.5H10.6667ZM14.5 18.3333C12.3829 18.3333 10.6667 16.6171 10.6667 14.5H8.66668C8.66668 17.7217 11.2784 20.3333 14.5 20.3333V18.3333Z" fill="#800080"/>
</g>
</svg>
