<svg xmlns="http://www.w3.org/2000/svg" viewBox="0 0 21.82 21.34"><defs><style>.cls-1{fill-rule:evenodd;}.cls-2{fill:none;stroke:#000;stroke-width:2px;}</style></defs><g id="Layer_2" data-name="Layer 2"><g id="Layer_1-2" data-name="Layer 1"><g id="Layer_2-2" data-name="Layer 2"><g id="Layer_1-2-2" data-name="Layer 1-2"><path class="cls-1" d="M4.8,16.84a8.9,8.9,0,0,0,1.56,2A9.17,9.17,0,1,0,12.8,3l.54,2a6.93,6.93,0,0,1,2.41.67,7.16,7.16,0,1,1-8,11.67,7,7,0,0,1-.91-1.05Z"/><path class="cls-2" d="M5.56,2.89A11.77,11.77,0,0,1,8.69,1.18c.43-.16.64-.24.84-.13s.25.33.38.79l2.5,9.34c.12.45.18.68.08.86s-.33.24-.79.36L2.36,14.91c-.46.12-.69.18-.88.06s-.22-.34-.3-.78A11.67,11.67,0,0,1,5.56,2.89Z"/></g></g></g></g></svg>